<?xml version="1.0" encoding="UTF-8"?>
<!-- The Best Svg Icon site in the world: iconSvg.co, Visit us! https://iconsvg.co -->
<svg fill="#000000" width="800px" height="800px" version="1.1" viewBox="144 144 512 512" xmlns="http://www.w3.org/2000/svg">
 <path d="m551.14 276.87-69.977-69.879c-10.82-10.863-25.527-16.961-40.859-16.926h-150.49c-15.309 0.011719-29.988 6.0977-40.812 16.926-10.824 10.824-16.91 25.5-16.926 40.809v304.4c0.015625 15.309 6.1016 29.988 16.926 40.812 10.824 10.824 25.504 16.91 40.812 16.926h220.41c15.301-0.027344 29.965-6.1211 40.781-16.945 10.812-10.824 16.895-25.492 16.906-40.793v-234.52c0.074219-15.297-5.9648-29.988-16.777-40.809zm-22.367 22.371c1.7383 1.9062 3.1797 4.0625 4.2812 6.3984h-75.32c-2.7812 0-5.0391-2.2578-5.0391-5.0391v-75.621c2.3359 1.0977 4.4922 2.543 6.3984 4.2812zm-18.543 279.21h-220.41c-6.9609 0-13.641-2.7656-18.562-7.6875-4.9219-4.9258-7.6875-11.602-7.6875-18.562v-304.4c0-6.9609 2.7656-13.637 7.6875-18.559s11.602-7.6875 18.562-7.6875h130.99l-0.003906 78.742c0.015624 9.7383 3.8867 19.074 10.773 25.957 6.8828 6.8867 16.219 10.758 25.957 10.773h78.895v215.18c0 6.9531-2.7578 13.621-7.668 18.543-4.9141 4.9219-11.578 7.6914-18.531 7.707zm-5.2891-183.49c0 4.168-1.6562 8.168-4.6016 11.113-2.9492 2.9492-6.9492 4.6055-11.117 4.6055h-178.45c-5.4141-0.30859-10.289-3.3711-12.91-8.1172-2.625-4.7461-2.625-10.508 0-15.254 2.6211-4.7461 7.4961-7.8125 12.91-8.1172h178.45c4.1758 0.011719 8.1719 1.6797 11.117 4.6367 2.9492 2.957 4.6016 6.957 4.6016 11.133zm0 62.977c0 4.168-1.6562 8.168-4.6016 11.113-2.9492 2.9492-6.9492 4.6055-11.117 4.6055h-178.45c-5.4141-0.30859-10.289-3.375-12.91-8.1172-2.625-4.7461-2.625-10.508 0-15.254 2.6211-4.7461 7.4961-7.8125 12.91-8.1172h178.45c4.1406 0.011719 8.1055 1.6523 11.047 4.5625 2.9414 2.9141 4.6211 6.8672 4.6719 11.004zm-83.934 62.977c-0.066406 4.1719-1.7852 8.1484-4.7773 11.059-2.9961 2.9102-7.0195 4.5117-11.195 4.457h-94.262c-5.4141-0.30469-10.289-3.3711-12.91-8.1172-2.625-4.7461-2.625-10.508 0-15.254 2.6211-4.7461 7.4961-7.8086 12.91-8.1172h94.262c4.2539-0.054687 8.3477 1.6094 11.355 4.6172 3.0078 3.0078 4.6719 7.1016 4.6172 11.355z"/>
</svg>